<svg width="153" height="26" viewBox="0 0 153 26" fill="none" xmlns="http://www.w3.org/2000/svg">
    <path d="M5.106 21.226H12.926V25H0.346V1.268H5.106V21.226ZM14.7275 15.514C14.7275 13.61 15.1015 11.9213 15.8495 10.448C16.6201 8.97467 17.6515 7.84133 18.9435 7.048C20.2581 6.25467 21.7201 5.858 23.3295 5.858C24.7348 5.858 25.9588 6.14133 27.0015 6.708C28.0668 7.27467 28.9168 7.98867 29.5515 8.85V6.164H34.3455V25H29.5515V22.246C28.9395 23.13 28.0895 23.8667 27.0015 24.456C25.9361 25.0227 24.7008 25.306 23.2955 25.306C21.7088 25.306 20.2581 24.898 18.9435 24.082C17.6515 23.266 16.6201 22.1213 15.8495 20.648C15.1015 19.152 14.7275 17.4407 14.7275 15.514ZM29.5515 15.582C29.5515 14.426 29.3248 13.44 28.8715 12.624C28.4181 11.7853 27.8061 11.1507 27.0355 10.72C26.2648 10.2667 25.4375 10.04 24.5535 10.04C23.6695 10.04 22.8535 10.2553 22.1055 10.686C21.3575 11.1167 20.7455 11.7513 20.2695 12.59C19.8161 13.406 19.5895 14.3807 19.5895 15.514C19.5895 16.6473 19.8161 17.6447 20.2695 18.506C20.7455 19.3447 21.3575 19.9907 22.1055 20.444C22.8761 20.8973 23.6921 21.124 24.5535 21.124C25.4375 21.124 26.2648 20.9087 27.0355 20.478C27.8061 20.0247 28.4181 19.39 28.8715 18.574C29.3248 17.7353 29.5515 16.738 29.5515 15.582ZM43.7544 9.088C44.3664 8.09067 45.1598 7.30867 46.1344 6.742C47.1318 6.17533 48.2651 5.892 49.5344 5.892V10.89H48.2764C46.7804 10.89 45.6471 11.2413 44.8764 11.944C44.1284 12.6467 43.7544 13.8707 43.7544 15.616V25H38.9944V6.164H43.7544V9.088ZM51.5165 15.514C51.5165 13.61 51.8905 11.9213 52.6385 10.448C53.4092 8.97467 54.4405 7.84133 55.7325 7.048C57.0472 6.25467 58.5092 5.858 60.1185 5.858C61.5239 5.858 62.7479 6.14133 63.7905 6.708C64.8559 7.27467 65.7059 7.98867 66.3405 8.85V6.164H71.1345V25H66.3405V22.246C65.7285 23.13 64.8785 23.8667 63.7905 24.456C62.7252 25.0227 61.4899 25.306 60.0845 25.306C58.4979 25.306 57.0472 24.898 55.7325 24.082C54.4405 23.266 53.4092 22.1213 52.6385 20.648C51.8905 19.152 51.5165 17.4407 51.5165 15.514ZM66.3405 15.582C66.3405 14.426 66.1139 13.44 65.6605 12.624C65.2072 11.7853 64.5952 11.1507 63.8245 10.72C63.0539 10.2667 62.2265 10.04 61.3425 10.04C60.4585 10.04 59.6425 10.2553 58.8945 10.686C58.1465 11.1167 57.5345 11.7513 57.0585 12.59C56.6052 13.406 56.3785 14.3807 56.3785 15.514C56.3785 16.6473 56.6052 17.6447 57.0585 18.506C57.5345 19.3447 58.1465 19.9907 58.8945 20.444C59.6652 20.8973 60.4812 21.124 61.3425 21.124C62.2265 21.124 63.0539 20.9087 63.8245 20.478C64.5952 20.0247 65.2072 19.39 65.6605 18.574C66.1139 17.7353 66.3405 16.738 66.3405 15.582ZM83.9775 25.238C82.3228 25.238 80.8268 24.9547 79.4895 24.388C78.1748 23.8213 77.1322 23.0053 76.3615 21.94C75.5908 20.8747 75.1942 19.6167 75.1715 18.166H80.2715C80.3395 19.1407 80.6795 19.9113 81.2915 20.478C81.9262 21.0447 82.7875 21.328 83.8755 21.328C84.9862 21.328 85.8588 21.0673 86.4935 20.546C87.1282 20.002 87.4455 19.2993 87.4455 18.438C87.4455 17.7353 87.2302 17.1573 86.7995 16.704C86.3688 16.2507 85.8248 15.8993 85.1675 15.65C84.5328 15.378 83.6488 15.0833 82.5155 14.766C80.9742 14.3127 79.7162 13.8707 78.7415 13.44C77.7895 12.9867 76.9622 12.318 76.2595 11.434C75.5795 10.5273 75.2395 9.326 75.2395 7.83C75.2395 6.42467 75.5908 5.20067 76.2935 4.158C76.9962 3.11533 77.9822 2.322 79.2515 1.778C80.5208 1.21133 81.9715 0.928 83.6035 0.928C86.0515 0.928 88.0348 1.52867 89.5535 2.73C91.0948 3.90867 91.9448 5.56333 92.1035 7.694H86.8675C86.8222 6.878 86.4708 6.20933 85.8135 5.688C85.1788 5.144 84.3288 4.872 83.2635 4.872C82.3342 4.872 81.5862 5.11 81.0195 5.586C80.4755 6.062 80.2035 6.75333 80.2035 7.66C80.2035 8.29467 80.4075 8.82733 80.8155 9.258C81.2462 9.666 81.7675 10.006 82.3795 10.278C83.0142 10.5273 83.8982 10.822 85.0315 11.162C86.5728 11.6153 87.8308 12.0687 88.8055 12.522C89.7802 12.9753 90.6188 13.6553 91.3215 14.562C92.0242 15.4687 92.3755 16.6587 92.3755 18.132C92.3755 19.4013 92.0468 20.58 91.3895 21.668C90.7322 22.756 89.7688 23.6287 88.4995 24.286C87.2302 24.9207 85.7228 25.238 83.9775 25.238ZM95.2782 15.514C95.2782 13.61 95.6522 11.9213 96.4002 10.448C97.1709 8.97467 98.2023 7.84133 99.4943 7.048C100.809 6.25467 102.271 5.858 103.88 5.858C105.286 5.858 106.51 6.14133 107.552 6.708C108.618 7.27467 109.468 7.98867 110.102 8.85V6.164H114.896V25H110.102V22.246C109.49 23.13 108.64 23.8667 107.552 24.456C106.487 25.0227 105.252 25.306 103.846 25.306C102.26 25.306 100.809 24.898 99.4943 24.082C98.2023 23.266 97.1709 22.1213 96.4002 20.648C95.6522 19.152 95.2782 17.4407 95.2782 15.514ZM110.102 15.582C110.102 14.426 109.876 13.44 109.422 12.624C108.969 11.7853 108.357 11.1507 107.586 10.72C106.816 10.2667 105.988 10.04 105.104 10.04C104.22 10.04 103.404 10.2553 102.656 10.686C101.908 11.1167 101.296 11.7513 100.82 12.59C100.367 13.406 100.14 14.3807 100.14 15.514C100.14 16.6473 100.367 17.6447 100.82 18.506C101.296 19.3447 101.908 19.9907 102.656 20.444C103.427 20.8973 104.243 21.124 105.104 21.124C105.988 21.124 106.816 20.9087 107.586 20.478C108.357 20.0247 108.969 19.39 109.422 18.574C109.876 17.7353 110.102 16.738 110.102 15.582ZM137.327 6.164V25H132.533V22.62C131.921 23.436 131.117 24.082 130.119 24.558C129.145 25.0113 128.079 25.238 126.923 25.238C125.45 25.238 124.147 24.932 123.013 24.32C121.88 23.6853 120.985 22.7673 120.327 21.566C119.693 20.342 119.375 18.8913 119.375 17.214V6.164H124.135V16.534C124.135 18.03 124.509 19.186 125.257 20.002C126.005 20.7953 127.025 21.192 128.317 21.192C129.632 21.192 130.663 20.7953 131.411 20.002C132.159 19.186 132.533 18.03 132.533 16.534V6.164H137.327ZM146.784 9.088C147.396 8.09067 148.189 7.30867 149.164 6.742C150.161 6.17533 151.294 5.892 152.564 5.892V10.89H151.306C149.81 10.89 148.676 11.2413 147.906 11.944C147.158 12.6467 146.784 13.8707 146.784 15.616V25H142.024V6.164H146.784V9.088Z" fill="black"/>
</svg>
