<svg width="102" height="120" viewBox="0 0 102 120" fill="none" xmlns="http://www.w3.org/2000/svg">
    <path d="M51 30C52.1046 30 53 30.8954 53 32V55H98C100.209 55 102 56.7909 102 59V96.5L96 99.9639L87.4023 95L78.8037 99.9639L70.2061 95L61 100.314L53.5 95.9844H36V100.984C36 103.194 37.7909 104.984 40 104.984H51.2773L61.6074 110.948L70.2061 105.984L78.8037 110.948L87.4023 105.984L96 110.948L102 107.484V112C102 116.418 98.4183 120 94 120H8C3.58173 120 5.25876e-06 116.418 0 112V34C2.21466e-08 31.7909 1.79086 30 4 30H51ZM23 69C23 71.2091 24.7909 73 27 73H28.1094C28.0389 73.49 28 73.9905 28 74.5C28 80.299 32.701 85 38.5 85C44.299 85 48.8682 80.2975 49 74.5C49.029 73.2235 49.0377 72.0597 49.0293 71H49V70C49 67.7909 47.2091 66 45 66H23V69ZM81 74C82.8333 73.8333 86.5 74.6 86.5 79H94.5C94.5 74.6667 91.8 66 81 66V74Z" fill="url(#paint0_linear_8_10)"/>
    <rect x="2" y="20" width="8" height="8" fill="url(#paint1_linear_8_10)"/>
    <rect x="12" y="20" width="8" height="8" fill="url(#paint2_linear_8_10)"/>
    <rect x="22" y="20" width="8" height="8" fill="url(#paint3_linear_8_10)"/>
    <rect x="12" y="10" width="8" height="8" fill="url(#paint4_linear_8_10)"/>
    <rect x="32" y="20" width="8" height="8" fill="url(#paint5_linear_8_10)"/>
    <rect x="22" y="10" width="8" height="8" fill="url(#paint6_linear_8_10)"/>
    <rect x="42" y="20" width="8" height="8" fill="url(#paint7_linear_8_10)"/>
    <rect x="32" y="10" width="8" height="8" fill="url(#paint8_linear_8_10)"/>
    <rect x="32" width="8" height="8" fill="url(#paint9_linear_8_10)"/>
    <defs>
        <linearGradient id="paint0_linear_8_10" x1="96.7455" y1="35.1818" x2="-84.0263" y2="165.939" gradientUnits="userSpaceOnUse">
            <stop stop-color="#F34A2D"/>
            <stop offset="1" stop-color="#FF9F8F"/>
        </linearGradient>
        <linearGradient id="paint1_linear_8_10" x1="9.58788" y1="20.4606" x2="-5.75758" y2="30.2545" gradientUnits="userSpaceOnUse">
            <stop stop-color="#F34A2D"/>
            <stop offset="1" stop-color="#FF9F8F"/>
        </linearGradient>
        <linearGradient id="paint2_linear_8_10" x1="19.5879" y1="20.4606" x2="4.24242" y2="30.2545" gradientUnits="userSpaceOnUse">
            <stop stop-color="#F34A2D"/>
            <stop offset="1" stop-color="#FF9F8F"/>
        </linearGradient>
        <linearGradient id="paint3_linear_8_10" x1="29.5879" y1="20.4606" x2="14.2424" y2="30.2545" gradientUnits="userSpaceOnUse">
            <stop stop-color="#F34A2D"/>
            <stop offset="1" stop-color="#FF9F8F"/>
        </linearGradient>
        <linearGradient id="paint4_linear_8_10" x1="19.5879" y1="10.4606" x2="4.24242" y2="20.2545" gradientUnits="userSpaceOnUse">
            <stop stop-color="#F34A2D"/>
            <stop offset="1" stop-color="#FF9F8F"/>
        </linearGradient>
        <linearGradient id="paint5_linear_8_10" x1="39.5879" y1="20.4606" x2="24.2424" y2="30.2545" gradientUnits="userSpaceOnUse">
            <stop stop-color="#F34A2D"/>
            <stop offset="1" stop-color="#FF9F8F"/>
        </linearGradient>
        <linearGradient id="paint6_linear_8_10" x1="29.5879" y1="10.4606" x2="14.2424" y2="20.2545" gradientUnits="userSpaceOnUse">
            <stop stop-color="#F34A2D"/>
            <stop offset="1" stop-color="#FF9F8F"/>
        </linearGradient>
        <linearGradient id="paint7_linear_8_10" x1="49.5879" y1="20.4606" x2="34.2424" y2="30.2545" gradientUnits="userSpaceOnUse">
            <stop stop-color="#F34A2D"/>
            <stop offset="1" stop-color="#FF9F8F"/>
        </linearGradient>
        <linearGradient id="paint8_linear_8_10" x1="39.5879" y1="10.4606" x2="24.2424" y2="20.2545" gradientUnits="userSpaceOnUse">
            <stop stop-color="#F34A2D"/>
            <stop offset="1" stop-color="#FF9F8F"/>
        </linearGradient>
        <linearGradient id="paint9_linear_8_10" x1="39.5879" y1="0.460606" x2="24.2424" y2="10.2545" gradientUnits="userSpaceOnUse">
            <stop stop-color="#F34A2D"/>
            <stop offset="1" stop-color="#FF9F8F"/>
        </linearGradient>
    </defs>
</svg>
